<?xml version="1.0" encoding="UTF-8"?>
<svg version="1.1" xmlns="http://www.w3.org/2000/svg" width="1024" height="1024">
<path d="M0 0 C337.92 0 675.84 0 1024 0 C1024 337.92 1024 675.84 1024 1024 C686.08 1024 348.16 1024 0 1024 C0 686.08 0 348.16 0 0 Z " fill="#01884E" transform="translate(0,0)"/>
<path d="M0 0 C1.35568336 0.00333092 1.35568336 0.00333092 2.73875427 0.00672913 C3.75973709 0.00680466 4.78071991 0.00688019 5.8326416 0.00695801 C6.94304306 0.01211929 8.05344452 0.01728058 9.19749451 0.02259827 C10.89336952 0.02472069 10.89336952 0.02472069 12.62350464 0.02688599 C16.25105891 0.03250433 19.8785525 0.04505994 23.50608826 0.05775452 C25.95856133 0.06276715 28.41103536 0.06733047 30.86351013 0.07142639 C36.89022371 0.08247971 42.91690165 0.09923568 48.94358826 0.12025452 C50.05927579 2.31244612 51.17056299 4.50669486 52.27952576 6.70228577 C52.59139832 7.31398621 52.90327087 7.92568665 53.22459412 8.55592346 C55.70584929 13.48103612 57.73921174 18.50358442 59.60765076 23.69447327 C61.11766052 27.56663281 62.83644035 31.31302125 64.5700531 35.08924866 C66.9546334 40.35134686 69.19535722 45.6738113 71.44358826 50.99525452 C71.90378357 52.07677795 72.36397888 53.15830139 72.83811951 54.27259827 C75.1390898 59.71066608 77.36523761 65.16442865 79.46702576 70.68275452 C81.84980474 76.93825347 84.43124754 83.09354995 87.06858826 89.24525452 C90.87094654 98.17471348 94.60713403 107.12701468 98.25608826 116.12025452 C102.07357939 125.52395062 105.90019228 134.92362305 109.7587738 144.31053162 C110.33908 145.72233799 110.91899708 147.13430437 111.4985199 148.5464325 C115.05924882 157.21904843 118.6755221 165.86563024 122.35765076 174.48744202 C123.09770727 176.22528814 123.837698 177.96316229 124.57762146 179.70106506 C126.00174763 183.04516073 127.43680443 186.38427894 128.87791443 189.72108459 C129.53171531 191.25371059 130.18513616 192.78649878 130.83811951 194.31947327 C131.28866196 195.35012405 131.28866196 195.35012405 131.74830627 196.40159607 C133.63317059 200.85944102 134.23160568 204.13637651 134.94358826 209.12025452 C129.99358826 209.12025452 125.04358826 209.12025452 119.94358826 209.12025452 C119.28358826 207.77962952 118.62358826 206.43900452 117.94358826 205.05775452 C113.00915769 196.24231115 105.52858259 191.36433568 95.96311951 188.53431702 C86.21270127 186.53519838 76.9127784 189.4166392 67.94358826 193.12025452 C66.71078861 190.22595524 65.4830828 187.329519 64.25608826 184.43275452 C63.7465863 183.23682678 63.7465863 183.23682678 63.22679138 182.01673889 C60.30164174 175.10026358 57.64416281 168.14174836 54.94358826 161.12025452 C23.92358826 161.12025452 -7.09641174 161.12025452 -39.05641174 161.12025452 C-48.26850598 184.02384547 -48.26850598 184.02384547 -57.11891174 207.05775452 C-64.37920204 226.44304481 -64.37920204 226.44304481 -66.05641174 228.12025452 C-68.05606156 228.20783455 -70.05877284 228.22722028 -72.06031799 228.21791077 C-73.2752594 228.21468811 -74.49020081 228.21146545 -75.74195862 228.20814514 C-77.02135315 228.19976624 -78.30074768 228.19138733 -79.61891174 228.18275452 C-80.90217346 228.1782428 -82.18543518 228.17373108 -83.50758362 228.16908264 C-86.69057197 228.15724997 -89.87346937 228.1407652 -93.05641174 228.12025452 C-92.55060659 223.9675942 -91.94684763 220.28508962 -90.30641174 216.43275452 C-85.6325329 205.41504858 -81.12487783 194.33928296 -76.71852112 183.21205139 C-74.56338234 177.79580339 -72.33118306 172.43884706 -69.93458557 167.12538147 C-68.63171704 164.15055267 -67.5339443 161.11170206 -66.43141174 158.05775452 C-63.90585197 151.18713674 -61.14180859 144.43081337 -58.30641174 137.68275452 C-54.35681569 128.28261151 -50.52039138 118.84369177 -46.7502594 109.37025452 C-43.58011811 101.41048406 -40.35611725 93.47406369 -37.09913635 85.54945374 C-35.42768025 81.48102155 -33.76749038 77.408999 -32.13844299 73.32337952 C-29.21192988 65.98631592 -26.20658908 58.68115874 -23.21070862 51.37220764 C-20.45621805 44.63004452 -17.77936193 37.86491415 -15.19264221 31.05653381 C-13.66708353 27.11414141 -12.03083617 23.22210387 -10.38844299 19.32728577 C-8.54317414 14.88457103 -6.77601288 10.41132954 -5.02345276 5.93128967 C-2.74291002 0.16039945 -2.74291002 0.16039945 0 0 Z " fill="#FBFCFC" transform="translate(243.05641174316406,382.87974548339844)"/>
<path d="M0 0 C1.13050781 0.29777344 2.26101563 0.59554688 3.42578125 0.90234375 C10.99973684 3.01579483 21.2698434 6.2698434 27 12 C27.08868299 14.95705321 27.11520296 17.89065056 27.09765625 20.84765625 C27.09553383 22.17729652 27.09553383 22.17729652 27.09336853 23.53379822 C27.08775215 26.37673254 27.07519691 29.21958931 27.0625 32.0625 C27.05748711 33.98502491 27.05292384 35.90755104 27.04882812 37.83007812 C27.03777741 42.55341549 27.02050183 47.27669458 27 52 C24.36 52 21.72 52 19 52 C18.67128906 50.74896484 18.67128906 50.74896484 18.3359375 49.47265625 C14.75867321 36.77773055 9.30330885 27.93488886 -2.16796875 21.1171875 C-21.90068116 10.6485565 -46.61243261 9.67535886 -68 16 C-77.90000806 19.29700609 -86.84771725 23.39125608 -95 30 C-95.680625 30.49628906 -96.36125 30.99257813 -97.0625 31.50390625 C-112.27899247 43.36207128 -119.53801745 65.13214933 -121.91430664 83.48754883 C-124.4464175 105.03651373 -123.53807165 128.46358685 -116 149 C-115.75765625 149.6693457 -115.5153125 150.33869141 -115.265625 151.02832031 C-107.17123143 173.03991264 -93.75137391 190.57263365 -72.12890625 200.6796875 C-54.35198569 208.18105972 -32.67488414 208.66552891 -14.30200195 202.4543457 C-13.49527542 202.18249954 -12.68854889 201.91065338 -11.8573761 201.63056946 C-11.24444199 201.42248154 -10.63150787 201.21439362 -10 201 C-10.01487195 192.46339535 -10.05645056 183.92751621 -10.13209057 175.39125443 C-10.1663757 171.42742605 -10.1914728 167.46398368 -10.19555664 163.5 C-10.19983653 159.67412623 -10.22827153 155.84912343 -10.27343178 152.02352142 C-10.28641704 150.56434961 -10.29071075 149.10507361 -10.28615379 147.64585114 C-10.28125425 145.60051051 -10.30730162 143.55772201 -10.34057617 141.51269531 C-10.35056892 139.76729462 -10.35056892 139.76729462 -10.36076355 137.9866333 C-10.75358405 134.8059232 -10.75358405 134.8059232 -13.41305542 132.64224243 C-20.12523432 128.3812215 -28.82620484 128.49963799 -36.5625 127.875 C-38.07553711 127.74544922 -38.07553711 127.74544922 -39.61914062 127.61328125 C-42.07897104 127.4034379 -44.53942713 127.20095035 -47 127 C-47 121.72 -47 116.44 -47 111 C-16.97 111 13.06 111 44 111 C44.36097928 133.67930341 44.36097928 133.67930341 44.43945312 143.36132812 C44.49321679 149.96331025 44.5567507 156.56416699 44.67895508 163.1652832 C44.7768866 168.4886855 44.83058698 173.81088099 44.85389519 179.13511467 C44.87050034 181.16422462 44.90292891 183.19326988 44.95157051 185.2218647 C45.31734456 201.11121947 45.31734456 201.11121947 42.07437134 205.76092529 C39.76914059 207.59655288 37.68880228 208.81806829 35 210 C33.68913046 210.74635486 32.38112588 211.49780379 31.078125 212.2578125 C29.8084027 212.89300081 28.53217033 213.51532947 27.25 214.125 C26.55664551 214.45991455 25.86329102 214.7948291 25.14892578 215.13989258 C23.10749022 216.11230623 21.0571344 217.06132265 19 218 C17.96101562 218.47566406 16.92203125 218.95132813 15.8515625 219.44140625 C0.12350408 226.02572467 -17.43017479 229.14477402 -34.43359375 229.16796875 C-35.31040298 229.17129715 -36.18721222 229.17462555 -37.09059143 229.17805481 C-38.93856284 229.18308719 -40.78654323 229.18546429 -42.63452148 229.18530273 C-45.3990871 229.18746989 -48.16324011 229.20561196 -50.92773438 229.22460938 C-68.18734045 229.2803067 -84.37658413 227.68677804 -101 223 C-101.92296875 222.7525 -102.8459375 222.505 -103.796875 222.25 C-133.53650687 213.9153261 -159.38133928 193.78764394 -175.171875 167.328125 C-184.41265189 150.5051722 -187.19993147 127.68262777 -187.125 108.6875 C-187.12886719 107.71876953 -187.13273438 106.75003906 -187.13671875 105.75195312 C-187.13282325 102.83227384 -187.07592611 99.9186386 -187 97 C-186.99105713 95.99880127 -186.98211426 94.99760254 -186.97290039 93.96606445 C-186.68168187 86.68802309 -186.68168187 86.68802309 -183.48046875 83.45703125 C-182.39378906 82.91433594 -181.30710937 82.37164062 -180.1875 81.8125 C-178.99218731 81.17300112 -177.79820298 80.53101396 -176.60546875 79.88671875 C-176.00009277 79.57524902 -175.3947168 79.2637793 -174.77099609 78.94287109 C-165.15108636 73.82127041 -156.53370619 66.72745913 -148 60 C-146.73736328 59.01386719 -146.73736328 59.01386719 -145.44921875 58.0078125 C-142.9437767 56.03134267 -140.46836264 54.02258372 -138 52 C-137.01257813 51.19949219 -136.02515625 50.39898437 -135.0078125 49.57421875 C-127.34861743 43.25371377 -120.2281232 36.43729365 -113.1875 29.4375 C-112.31633545 28.57552002 -111.4451709 27.71354004 -110.54760742 26.82543945 C-101.45466034 17.68925439 -93.15601551 7.73402326 -86 -3 C-83.03514041 -3.75362017 -80.26835991 -4.2790612 -77.25 -4.6875 C-76.33621582 -4.81342529 -75.42243164 -4.93935059 -74.48095703 -5.0690918 C-49.65649693 -8.09581522 -24.05659464 -6.86969141 0 0 Z " fill="#FBFDFC" transform="translate(791,385)"/>
<path d="M0 0 C1.06367294 0.00222061 2.12734589 0.00444122 3.22325134 0.00672913 C5.02500572 0.00684242 5.02500572 0.00684242 6.86315918 0.00695801 C8.17042465 0.01211929 9.47769012 0.01728058 10.8245697 0.02259827 C12.16835477 0.02446253 13.51214052 0.02588639 14.85592651 0.02688599 C18.39873622 0.0307105 21.94150515 0.0405402 25.48429871 0.05158997 C29.09706572 0.06180552 32.7098393 0.06638392 36.32261658 0.07142639 C43.41573225 0.08216254 50.50882019 0.09923816 57.60191345 0.12025452 C66.87500835 17.20018572 66.87500835 17.20018572 69.7283783 24.82582092 C71.41039563 29.2438195 73.44411811 33.51257235 75.41441345 37.80775452 C76.01479431 39.12549866 76.01479431 39.12549866 76.62730408 40.46986389 C78.75485938 45.1291098 80.90749032 49.77567154 83.08483887 54.41186523 C86.83376731 62.40219338 90.43746338 70.45058851 93.99803162 78.52635193 C101.19406965 94.83813424 108.57604822 111.05994706 116.05451965 127.24397278 C116.70977321 128.66464483 117.36310672 130.0862044 118.01429749 131.50874329 C119.32204981 134.36498302 120.6449507 137.20698597 122.04136658 140.02113342 C124.77227257 145.623138 124.77227257 145.623138 123.92564392 148.09364319 C121.20062153 152.26561125 117.4894783 155.61385206 113.97691345 159.12025452 C113.12967712 159.96732971 112.2824408 160.81440491 111.40953064 161.68714905 C104.52413466 168.45028099 97.29206352 174.39682905 89.36558533 179.8888092 C88.12061564 180.75808206 86.8886051 181.6460585 85.66636658 182.54701233 C80.81356815 186.12025452 80.81356815 186.12025452 78.60191345 186.12025452 C74.63445268 177.79373945 70.70258182 169.46089425 67.03941345 160.99525452 C64.66125592 155.50153141 62.19088398 150.06406487 59.63536072 144.64979553 C56.49192728 137.95151988 53.49169799 131.1896197 50.47691345 124.43275452 C45.49203404 113.26382523 40.39725704 102.15233761 35.22349548 91.06947327 C31.48108308 83.04460123 27.81196895 74.99032125 24.22789001 66.89344788 C22.8152566 63.25188923 22.8152566 63.25188923 20.60191345 60.12025452 C19.66155669 74.86487533 19.22649698 89.60969101 18.8480072 104.37806702 C18.78240356 106.86341443 18.71656798 109.34875573 18.6505127 111.83409119 C18.4788923 118.3143892 18.31038232 124.79476433 18.14256287 131.27516174 C17.97011727 137.91237855 17.79467091 144.5495156 17.61949158 151.18666077 C17.27739394 164.16445015 16.93848633 177.14232073 16.60191345 190.12025452 C14.77108689 187.37401467 13.58440912 184.90910355 12.3167572 181.87806702 C11.87243347 180.82385559 11.42810974 179.76964417 10.97032166 178.68348694 C9.99815638 176.34753683 9.03205765 174.00905464 8.07139587 171.66835022 C5.86614625 166.32922992 3.67301938 161.0889976 0.87535095 156.03041077 C-6.72574729 141.88828631 -6.22195433 128.09226857 -5.68397522 112.52185059 C-5.38400505 103.69110482 -5.2711076 94.86121359 -5.1754303 86.02650452 C-5.15802952 84.47933343 -5.14053204 82.93216343 -5.12294006 81.38499451 C-5.11414448 80.61137888 -5.10534889 79.83776325 -5.09628677 79.04070473 C-5.08743832 78.26306456 -5.07858986 77.48542439 -5.06947327 76.68421936 C-5.06063488 75.90225378 -5.05179649 75.1202882 -5.04269028 74.31462669 C-4.82341557 55.06353194 -4.56190678 35.81290616 -3.98730278 16.56864548 C-3.94631432 15.18991735 -3.90679159 13.81114481 -3.86879158 12.43233109 C-3.81582332 10.54283803 -3.75547643 8.65355606 -3.69471741 6.76429749 C-3.66163986 5.69436554 -3.62856232 4.62443359 -3.59448242 3.52207947 C-3.33069681 0.29611118 -3.23735181 0.16234034 0 0 Z " fill="#FBFCFC" transform="translate(365.39808654785156,382.87974548339844)"/>
<path d="M0 0 C7.47498255 0.09492041 14.34551128 1.79235269 21 5.1875 C23.29524388 8.63036582 23.10185676 10.19201521 22.484375 14.18359375 C21.82191123 16.92427049 20.69567895 18.94920379 19 21.1875 C14.17699816 23.59900092 8.72478256 22.25525848 3.8125 20.75 C3.01457031 20.48316406 2.21664063 20.21632813 1.39453125 19.94140625 C-1.01174132 19.09715111 -1.01174132 19.09715111 -3.67578125 18.90234375 C-4.44277344 18.66644531 -5.20976563 18.43054688 -6 18.1875 C-7.3125 15.625 -7.3125 15.625 -8 13.1875 C-18.04144513 12.4366605 -18.04144513 12.4366605 -27 16.1875 C-30.65635902 20.25341872 -33.46280154 24.39735009 -36 29.25 C-36.31710937 29.82943359 -36.63421875 30.40886719 -36.9609375 31.00585938 C-47.35290803 50.60511579 -53.55013661 73.62026799 -59.09481812 95.07601929 C-59.4416476 96.41640254 -59.79399078 97.75537424 -60.15249634 99.09268188 C-62.37206264 107.43617736 -63.17801773 114.92040667 -62.96679688 123.53833008 C-63.01986993 129.37129301 -64.19970165 134.88158527 -65.4375 140.5625 C-67.46584169 150.23263323 -69.11678024 159.53483114 -69.25 169.4375 C-69.27578125 170.59765625 -69.3015625 171.7578125 -69.328125 172.953125 C-68.96731441 176.50968651 -68.13292543 178.35050209 -66 181.1875 C-61.24196573 183.56651714 -55.77257531 183.01359434 -50.78271484 181.52685547 C-44.72348468 179.39433244 -38.8527186 176.82684764 -33 174.1875 C-32.28086426 173.86716797 -31.56172852 173.54683594 -30.82080078 173.21679688 C-14.92703938 166.03429592 -0.73038504 155.84830766 13 145.1875 C14.12863945 144.32777464 15.25755787 143.4684154 16.38671875 142.609375 C24.16113578 136.64848694 31.40517342 130.28550025 38.52441406 123.56152344 C40.68084454 121.55351703 42.90632404 119.62621685 45.125 117.6875 C64.27730712 100.48761254 87.56355432 75.16539628 91.34765625 48.76171875 C91.53712973 44.38735279 90.91136564 41.45175845 88 38.1875 C82.12203314 33.8390686 75.33926085 31.40077767 68 31.1875 C67.34 31.8475 66.68 32.5075 66 33.1875 C58.301994 33.6559385 47.32472337 31.44472836 41.1484375 26.79296875 C39.45477995 24.42530462 39.53077112 22.09154379 39.65625 19.2578125 C40.24382995 15.71897872 41.55184378 13.76120269 44 11.1875 C49.60037813 9.80658484 53.84048068 10.51137295 59.25 12 C60.30960938 12.26780273 60.30960938 12.26780273 61.390625 12.54101562 C64.70234399 13.40971464 67.12735024 14.27240016 70 16.1875 C70.33 17.1775 70.66 18.1675 71 19.1875 C73.69662206 20.08438756 76.31151045 20.82088181 79.0625 21.5 C88.74559335 24.11957596 95.06631866 27.98505815 101 36.1875 C102.70350526 39.76724356 103.2726645 42.60754469 103.25 46.5625 C103.25515625 47.45710938 103.2603125 48.35171875 103.265625 49.2734375 C101.3687573 70.08319197 86.40446058 91.01619488 73 106.1875 C71.72301789 107.72545661 70.44614092 109.26350309 69.171875 110.80371094 C62.43789981 118.89705899 55.26817799 126.57450613 48 134.1875 C46.76056641 135.49074219 46.76056641 135.49074219 45.49609375 136.8203125 C40.83521195 141.60626268 35.87733973 145.85009026 30.66015625 150.01953125 C28.32939679 151.91904887 26.1341041 153.8870496 23.9375 155.9375 C3.84258682 173.92655194 -35.43185211 203.60801564 -64 202.1875 C-64.22429687 202.99960937 -64.44859375 203.81171875 -64.6796875 204.6484375 C-66.32997487 209.07198884 -68.62587962 212.82268364 -71.125 216.8125 C-71.62217529 217.61300781 -72.11935059 218.41351563 -72.6315918 219.23828125 C-74.07958154 221.55992496 -75.5380936 223.87460194 -77 226.1875 C-77.66386719 227.24710938 -78.32773437 228.30671875 -79.01171875 229.3984375 C-88.61831744 244.27720423 -99.95047852 257.7727336 -112.29394531 270.43457031 C-113.84199548 272.0251542 -115.37230812 273.63062051 -116.8984375 275.2421875 C-123.73554669 282.31989878 -131.12602697 288.32742371 -139 294.1875 C-139.95471191 294.90873047 -139.95471191 294.90873047 -140.92871094 295.64453125 C-173.12366192 319.84262034 -210.66860856 334.58787401 -251.1875 334.25 C-252.75854492 334.24323242 -252.75854492 334.24323242 -254.36132812 334.23632812 C-256.90761536 334.22470124 -259.4537746 334.20836281 -262 334.1875 C-262.29801514 334.97753418 -262.59603027 335.76756836 -262.90307617 336.58154297 C-264.05935094 339.32849976 -265.02950664 340.45978255 -267.3125 342.3125 C-267.88613281 342.78945313 -268.45976562 343.26640625 -269.05078125 343.7578125 C-276.05357735 348.89413189 -282.68363383 349.67912918 -291.30859375 349.0078125 C-297.60654746 347.76596247 -303.50556719 344.17234315 -307.609375 339.26171875 C-312.34285325 332.0918914 -314.13332168 324.4824848 -312.60546875 315.99609375 C-310.61041029 308.59507045 -305.80864978 302.76219471 -299.4921875 298.4921875 C-292.64516364 294.90769539 -282.78411052 294.79273666 -275.4140625 296.94140625 C-273.46750419 297.89231117 -271.75769121 298.92511829 -270 300.1875 C-269.113125 300.765 -268.22625 301.3425 -267.3125 301.9375 C-261.29740557 307.79002431 -259.63115313 312.97478546 -259 321.1875 C-205.52195721 318.86921327 -161.71631112 300.19342149 -124.37109375 261.4609375 C-122.19466245 259.07632581 -120.08283375 256.65411886 -118 254.1875 C-117.27683594 253.34058594 -116.55367187 252.49367188 -115.80859375 251.62109375 C-104.45210882 238.05256306 -95.08986717 223.33514634 -86 208.1875 C-85.58073242 207.49140625 -85.16146484 206.7953125 -84.72949219 206.078125 C-82.65511784 202.79408668 -82.65511784 202.79408668 -82 199.0625 C-82.99548062 197.03271108 -82.99548062 197.03271108 -84.875 195 C-89.63579198 188.69895179 -90.60968041 181.28722034 -90.625 173.5625 C-90.62733643 172.64170654 -90.62967285 171.72091309 -90.63208008 170.7722168 C-90.29266349 156.97566533 -86.43186915 143.47915376 -83 130.1875 C-82.74943848 129.13353027 -82.49887695 128.07956055 -82.24072266 126.99365234 C-80.92428379 121.66461513 -79.60306261 118.41304294 -76 114.1875 C-74.93480622 110.89150442 -74.93480622 110.89150442 -74.25 107.125 C-72.49763918 98.89477953 -70.26965795 90.8336492 -67.9375 82.75 C-67.59686523 81.56591553 -67.25623047 80.38183105 -66.90527344 79.16186523 C-65.94383766 75.8349885 -64.9743489 72.51061559 -64 69.1875 C-63.58041016 67.75120239 -63.58041016 67.75120239 -63.15234375 66.28588867 C-62.765625 64.97648315 -62.765625 64.97648315 -62.37109375 63.640625 C-62.14993896 62.89071289 -61.92878418 62.14080078 -61.70092773 61.36816406 C-60.66042193 58.13103488 -59.38514951 55.00385766 -58.0859375 51.86328125 C-57.32919602 49.99864847 -56.60777306 48.11945756 -55.9140625 46.23046875 C-42.80569301 10.55634909 -42.80569301 10.55634909 -27.79296875 3.08984375 C-21.30661224 0.77712957 -14.816754 0.97620867 -8.02734375 1.1796875 C-7.02832031 1.18226563 -6.02929688 1.18484375 -5 1.1875 C-3.47615222 -0.33634778 -2.12094628 0.01841099 0 0 Z " fill="#F8FBFA" transform="translate(617,280.8125)"/>
<path d="M0 0 C0.19916016 1.58941406 0.19916016 1.58941406 0.40234375 3.2109375 C0.58053875 4.59898279 0.7589346 5.98700231 0.9375 7.375 C1.06801758 8.42300781 1.06801758 8.42300781 1.20117188 9.4921875 C1.66318128 13.36783575 1.66318128 13.36783575 3 17 C3.19448242 18.33990692 3.34296256 19.68670568 3.46484375 21.03515625 C3.54283203 21.84533203 3.62082031 22.65550781 3.70117188 23.49023438 C3.85620012 25.17760794 4.00989182 26.86510494 4.16210938 28.55273438 C4.62781417 33.36501721 5.37601926 37.95667419 6.48461914 42.66040039 C7.46916668 47.12980781 8.07936751 51.6623445 8.75 56.1875 C9.09556345 58.47537999 9.4419731 60.76313227 9.7890625 63.05078125 C9.97887695 64.3032666 10.16869141 65.55575195 10.36425781 66.84619141 C11.45803071 74.02079493 12.59430199 81.18881733 13.72717285 88.35733032 C14.11657811 90.82170165 14.50509386 93.28621207 14.89355469 95.75073242 C15.01686157 96.5310936 15.14016846 97.31145477 15.26721191 98.11546326 C15.50871059 99.64413176 15.74952766 101.17290811 15.98962402 102.70179749 C16.8040881 107.86022502 17.69466837 113.00132621 18.66357422 118.13330078 C19.12834186 122.09360677 19.06460135 126.01748028 19 130 C11.58540058 130.02312883 4.17080889 130.04091785 -3.24381924 130.05181217 C-6.68640348 130.05703982 -10.12896312 130.06413531 -13.5715332 130.07543945 C-17.52555043 130.08834235 -21.47955756 130.09322918 -25.43359375 130.09765625 C-27.29605995 130.10539818 -27.29605995 130.10539818 -29.19615173 130.11329651 C-30.90781273 130.11340981 -30.90781273 130.11340981 -32.65405273 130.11352539 C-33.664431 130.115746 -34.67480927 130.11796661 -35.71580505 130.12025452 C-38 130 -38 130 -39 129 C-39.31057785 127.50473011 -39.56540732 125.99782203 -39.796875 124.48828125 C-40.02431396 123.03168091 -40.02431396 123.03168091 -40.25634766 121.5456543 C-40.41925293 120.47871338 -40.5821582 119.41177246 -40.75 118.3125 C-41.10581682 116.033705 -41.46263216 113.75506574 -41.8203125 111.4765625 C-42.01012695 110.26516602 -42.19994141 109.05376953 -42.39550781 107.80566406 C-43.43519946 101.2601417 -44.53034882 94.72400314 -45.625 88.1875 C-45.83092773 86.95620361 -46.03685547 85.72490723 -46.24902344 84.45629883 C-46.64378744 82.09715205 -47.03911176 79.73809894 -47.43505859 77.37915039 C-47.81083914 75.13145007 -48.18357501 72.88323854 -48.55322266 70.63452148 C-48.72644043 69.58208252 -48.8996582 68.52964355 -49.078125 67.4453125 C-49.22926758 66.52121582 -49.38041016 65.59711914 -49.53613281 64.64501953 C-50.00407682 61.97675355 -50.55205211 59.33499561 -51.125 56.6875 C-53.03309259 46.76857241 -53.03309259 46.76857241 -50.8203125 42.98046875 C-49.66029139 41.35144388 -48.47374907 39.74116221 -47.26953125 38.14453125 C-44.41060981 34.18337504 -41.89834391 30.05523583 -39.375 25.875 C-36.65217672 21.37329766 -36.65217672 21.37329766 -35.31005859 19.18017578 C-34.42665856 17.71003745 -33.57055163 16.22319634 -32.74072266 14.72216797 C-29.65386234 9.31014014 -29.65386234 9.31014014 -26.4140625 7.7734375 C-25.03347656 7.57621094 -25.03347656 7.57621094 -23.625 7.375 C-17.65958516 6.2546298 -12.46335409 4.32576829 -6.90087891 1.97998047 C-2.17168993 0 -2.17168993 0 0 0 Z " fill="#FBFDFC" transform="translate(589,481)"/>
<path d="M0 0 C0.66 0 1.32 0 2 0 C3.75167171 4.12429205 5.50102808 8.24956242 7.25 12.375 C7.98669922 14.10943359 7.98669922 14.10943359 8.73828125 15.87890625 C12.7633746 25.37812656 16.72666893 34.79086004 19.77734375 44.65234375 C21.19681947 48.53889547 22.91537925 52.23548525 24.64672852 55.99145508 C26.92431831 61.05491151 28.9568167 66.21348258 31 71.375 C31.43425293 72.46828613 31.86850586 73.56157227 32.31591797 74.68798828 C33.16621639 76.8317613 34.01507451 78.9761063 34.86230469 81.12109375 C35.82272665 83.55141472 36.78909305 85.97923074 37.7578125 88.40625 C38.43457031 90.12328125 38.43457031 90.12328125 39.125 91.875 C39.68574219 93.29425781 39.68574219 93.29425781 40.2578125 94.7421875 C41 97 41 97 41 100 C14.93 100 -11.14 100 -38 100 C-36.16711294 94.50133881 -34.32994177 89.09973457 -32.28125 83.69140625 C-31.75373989 82.29449641 -31.22640449 80.89752057 -30.69921875 79.50048828 C-30.42319824 78.77033508 -30.14717773 78.04018188 -29.86279297 77.28790283 C-28.34656004 73.26724697 -26.84645592 69.24056984 -25.34375 65.21484375 C-24.38554415 62.65215371 -23.42693228 60.08961583 -22.46826172 57.52709961 C-21.82216655 55.799129 -21.17665973 54.0709383 -20.53173828 52.3425293 C-16.48725043 41.50506121 -12.34592838 30.72040708 -8 20 C-7.29069781 18.22955452 -6.58214765 16.45880715 -5.875 14.6875 C-2.9375 7.34375 -2.9375 7.34375 0 0 Z " fill="#048750" transform="translate(249,425)"/>
<path d="M0 0 C4.42403094 1.53292275 7.5007327 4.05115767 10 8 C11.22492931 12.62837215 11.59642202 17.34648638 9.875 21.875 C7.89325012 25.17791646 6.19946062 26.89303813 3 29 C2.38125 29.4125 1.7625 29.825 1.125 30.25 C-3.5992388 31.9173784 -7.70267119 31.37939277 -12.1875 29.375 C-16.05349248 27.22472899 -18.08058913 25.06915104 -20 21 C-21.23311533 16.30731109 -21.25497483 12.86408137 -19.875 8.1875 C-15.05618741 -0.00448141 -8.84431637 -0.89053117 0 0 Z " fill="#078952" transform="translate(336,588)"/>
<path d="M0 0 C-1.33296092 4.12117981 -2.81759912 8.13354657 -4.4609375 12.140625 C-4.93273437 13.29433594 -5.40453125 14.44804688 -5.890625 15.63671875 C-6.38046875 16.82910156 -6.8703125 18.02148438 -7.375 19.25 C-8.34144138 21.60925395 -9.30759186 23.96862709 -10.2734375 26.328125 C-10.73459961 27.45412109 -11.19576172 28.58011719 -11.67089844 29.74023438 C-13.46944169 34.15135662 -15.2406617 38.57311416 -17 43 C-20.77043032 43.14496508 -24.54014742 43.23395607 -28.3125 43.3125 C-29.38435547 43.35439453 -30.45621094 43.39628906 -31.56054688 43.43945312 C-32.58857422 43.45556641 -33.61660156 43.47167969 -34.67578125 43.48828125 C-35.62364502 43.51446533 -36.57150879 43.54064941 -37.5480957 43.56762695 C-40 43 -40 43 -41.70776367 40.84448242 C-43.02704957 37.94045823 -44.07727117 35.05210307 -45 32 C-44.34104736 31.57291748 -43.68209473 31.14583496 -43.00317383 30.70581055 C-30.73914126 22.72717555 -18.87471426 14.8069553 -8 5 C-2.34662045 0 -2.34662045 0 0 0 Z " fill="#F8FBF9" transform="translate(504,568)"/>
<path d="M0 0 C-7.05845926 4.61561858 -14.1746089 8.73289811 -21.8125 12.3125 C-22.85071899 12.79976563 -22.85071899 12.79976563 -23.90991211 13.296875 C-37.35109641 19.47805647 -37.35109641 19.47805647 -45 19 C-43.65771702 15.3861612 -42.32696422 12.08760629 -40 9 C-37.234375 8.1015625 -37.234375 8.1015625 -33.75 7.625 C-25.43829854 6.31780277 -17.58773592 3.83673569 -9.59472656 1.24853516 C-8.63920898 0.9447998 -7.68369141 0.64106445 -6.69921875 0.328125 C-5.41277466 -0.09098145 -5.41277466 -0.09098145 -4.1003418 -0.51855469 C-2 -1 -2 -1 0 0 Z " fill="#EAF5F0" transform="translate(607,440)"/>
<path d="M0 0 C0.99 0 1.98 0 3 0 C3.495 1.485 3.495 1.485 4 3 C-29.83333333 24 -29.83333333 24 -40 24 C-40 23.34 -40 22.68 -40 22 C-39.34 22 -38.68 22 -38 22 C-38 21.34 -38 20.68 -38 20 C-36.77925781 19.50371094 -35.55851563 19.00742187 -34.30078125 18.49609375 C-24.54606114 14.48674687 -15.13922247 10.29324469 -6 5 C-5.07960938 4.48050781 -4.15921875 3.96101563 -3.2109375 3.42578125 C-0.88288736 2.19020044 -0.88288736 2.19020044 0 0 Z " fill="#1D9368" transform="translate(607,438)"/>
<path d="M0 0 C0.99 0 1.98 0 3 0 C3.33 0.99 3.66 1.98 4 3 C1.8782637 4.33878572 -0.24705188 5.67115476 -2.375 7 C-2.97828125 7.3815625 -3.5815625 7.763125 -4.203125 8.15625 C-8.7734375 11 -8.7734375 11 -11 11 C-11 10.01 -11 9.02 -11 8 C-8.84765625 6.46484375 -8.84765625 6.46484375 -6.0625 4.9375 C-2.37095382 3.11790919 -2.37095382 3.11790919 0 0 Z " fill="#26936D" transform="translate(607,438)"/>
<path d="M0 0 C-1.39600735 2.7920147 -3.00416384 3.00162933 -5.875 4.125 C-6.75929688 4.47820312 -7.64359375 4.83140625 -8.5546875 5.1953125 C-11 6 -11 6 -14 6 C-14 5.34 -14 4.68 -14 4 C-13.34 4 -12.68 4 -12 4 C-12 3.34 -12 2.68 -12 2 C-10.75579353 1.4654744 -9.50429064 0.94791389 -8.25 0.4375 C-7.55390625 0.14746094 -6.8578125 -0.14257812 -6.140625 -0.44140625 C-3.69987216 -1.07831803 -2.3596345 -0.80248831 0 0 Z " fill="#16895F" transform="translate(581,456)"/>
<path d="M0 0 C-1.45449401 1.0055761 -2.91372443 2.00430435 -4.375 3 C-5.59316406 3.8353125 -5.59316406 3.8353125 -6.8359375 4.6875 C-9 6 -9 6 -11 6 C-11 5.34 -11 4.68 -11 4 C-12.32 3.67 -13.64 3.34 -15 3 C-12.87790224 2.30359327 -10.75221473 1.61811643 -8.625 0.9375 C-6.84996094 0.36322266 -6.84996094 0.36322266 -5.0390625 -0.22265625 C-2 -1 -2 -1 0 0 Z " fill="#D5EBE0" transform="translate(607,440)"/>
<path d="M0 0 C0.66 0 1.32 0 2 0 C2.33 1.32 2.66 2.64 3 4 C0.03 6.475 0.03 6.475 -3 9 C-2.01 6.03 -1.02 3.06 0 0 Z " fill="#339971" transform="translate(249,425)"/>
</svg>
